<?xml version="1.0" standalone="no"?>
<!DOCTYPE svg PUBLIC "-//W3C//DTD SVG 20010904//EN"
 "http://www.w3.org/TR/2001/REC-SVG-20010904/DTD/svg10.dtd">
<svg version="1.0" xmlns="http://www.w3.org/2000/svg"
 width="1503.000000pt" height="338.000000pt" viewBox="0 0 1503.000000 338.000000"
 preserveAspectRatio="xMidYMid meet">
<metadata>
Created by potrace 1.16, written by Peter Selinger 2001-2019
</metadata>
<g transform="translate(0.000000,338.000000) scale(0.100000,-0.100000)"
fill="#000000" stroke="none">
<path d="M6416 2911 c-11 -12 -16 -31 -14 -52 3 -30 8 -35 53 -52 66 -25 77
-34 64 -58 -11 -21 -58 -26 -89 -9 -24 13 -37 -5 -20 -25 17 -20 99 -19 128 1
26 18 30 65 7 88 -9 9 -34 21 -56 27 -50 16 -66 33 -48 55 10 13 24 15 61 11
36 -5 48 -3 48 7 0 32 -107 37 -134 7z"/>
<path d="M6850 2844 c0 -81 10 -120 34 -136 6 -4 32 -8 58 -8 38 0 50 5 67 26
18 23 21 41 21 115 0 72 -3 89 -15 89 -12 0 -15 -15 -15 -78 0 -91 -15 -122
-60 -122 -45 0 -60 31 -60 122 0 63 -3 78 -15 78 -12 0 -15 -16 -15 -86z"/>
<path d="M7130 2815 l0 -115 61 0 c54 0 64 3 90 29 25 26 29 37 29 86 0 49 -4
60 -29 86 -26 26 -36 29 -90 29 l-61 0 0 -115z m129 59 c12 -15 21 -41 21 -59
0 -50 -33 -85 -81 -85 l-39 0 0 85 0 85 39 0 c31 0 44 -6 60 -26z"/>
<path d="M7400 2815 l0 -115 75 0 c60 0 75 3 75 15 0 12 -13 15 -60 15 l-60 0
0 35 0 35 50 0 c38 0 50 4 50 15 0 11 -12 15 -50 15 l-50 0 0 35 0 35 60 0
c47 0 60 3 60 15 0 12 -15 15 -75 15 l-75 0 0 -115z"/>
<path d="M7630 2815 c0 -107 1 -115 20 -115 18 0 19 5 13 85 -3 47 -3 85 0 85
3 0 34 -38 68 -85 35 -47 69 -85 76 -85 10 0 13 28 13 115 0 94 -3 115 -15
115 -11 0 -15 -18 -17 -79 l-3 -80 -60 80 c-85 113 -95 109 -95 -36z"/>
<path d="M8270 2815 l0 -115 65 0 c52 0 69 4 85 20 24 24 26 63 4 85 -13 12
-14 19 -5 28 16 16 14 63 -5 81 -11 11 -35 16 -80 16 l-64 0 0 -115z"/>
<path d="M8543 2906 c-25 -22 -28 -30 -28 -89 0 -55 4 -69 24 -91 20 -21 34
-26 72 -26 40 0 51 4 73 31 21 24 26 41 26 84 0 43 -5 60 -26 84 -22 26 -33
31 -69 31 -32 0 -52 -7 -72 -24z m103 -14 c59 -39 33 -162 -35 -162 -40 0 -64
32 -64 85 0 29 6 52 18 65 18 20 60 26 81 12z"/>
<path d="M8800 2815 l0 -115 61 0 c54 0 64 3 90 29 25 26 29 37 29 86 0 49 -4
60 -29 86 -26 26 -36 29 -90 29 l-61 0 0 -115z m129 59 c12 -15 21 -41 21 -59
0 -50 -33 -85 -81 -85 l-39 0 0 85 0 85 39 0 c31 0 44 -6 60 -26z"/>
<path d="M9443 2906 c-25 -22 -28 -30 -28 -89 0 -55 4 -69 24 -91 20 -21 34
-26 72 -26 40 0 51 4 73 31 21 24 26 41 26 84 0 43 -5 60 -26 84 -22 26 -33
31 -69 31 -32 0 -52 -7 -72 -24z m103 -14 c59 -39 33 -162 -35 -162 -40 0 -64
32 -64 85 0 29 6 52 18 65 18 20 60 26 81 12z"/>
<path d="M10070 2815 c0 -103 2 -115 18 -115 14 0 16 8 14 50 l-4 50 66 0 66
0 0 -50 c0 -38 4 -50 15 -50 12 0 15 19 15 115 0 96 -3 115 -15 115 -11 0 -15
-12 -15 -50 l0 -50 -65 0 -65 0 0 50 c0 38 -4 50 -15 50 -12 0 -15 -19 -15
-115z"/>
<path d="M10360 2815 l0 -115 75 0 c60 0 75 3 75 15 0 12 -13 15 -60 15 l-60
0 0 35 0 35 50 0 c38 0 50 4 50 15 0 11 -12 15 -50 15 l-50 0 0 35 0 35 60 0
c47 0 60 3 60 15 0 12 -15 15 -75 15 l-75 0 0 -115z"/>
<path d="M10590 2815 c0 -96 3 -115 15 -115 11 0 15 11 15 40 0 36 3 40 25 40
17 0 33 -12 55 -45 17 -25 37 -45 45 -45 26 0 27 21 1 47 -31 31 -32 37 -6 63
12 12 20 33 20 55 0 56 -27 75 -105 75 l-65 0 0 -115z"/>
<path d="M11210 2815 l0 -115 75 0 c60 0 75 3 75 15 0 12 -13 15 -60 15 l-60
0 0 35 0 35 50 0 c38 0 50 4 50 15 0 11 -12 15 -50 15 l-50 0 0 35 0 35 60 0
c47 0 60 3 60 15 0 12 -15 15 -75 15 l-75 0 0 -115z"/>
<path d="M11833 2906 c-25 -22 -28 -30 -28 -89 0 -55 4 -69 24 -91 20 -21 34
-26 72 -26 40 0 51 4 73 31 21 24 26 41 26 84 0 43 -5 60 -26 84 -22 26 -33
31 -69 31 -32 0 -52 -7 -72 -24z m103 -14 c59 -39 33 -162 -35 -162 -40 0 -64
32 -64 85 0 29 6 52 18 65 18 20 60 26 81 12z"/>
<path d="M12080 2815 c0 -96 3 -115 15 -115 11 0 15 11 15 40 0 36 3 40 25 40
17 0 33 -12 55 -45 17 -25 37 -45 45 -45 26 0 27 21 1 47 -31 31 -32 37 -6 63
12 12 20 33 20 55 0 56 -27 75 -105 75 l-65 0 0 -115z"/>
<path d="M5083 2818 c3 -10 121 -13 547 -13 426 0 544 3 548 13 3 9 -111 12
-548 12 -437 0 -551 -3 -547 -12z"/>
<path d="M12505 2820 c-3 -6 0 -12 7 -15 7 -3 253 -4 547 -3 417 2 535 6 539
16 5 16 -1083 18 -1093 2z"/>
<path d="M1190 2470 c-8 -5 -42 -10 -75 -10 -100 0 -130 -9 -142 -39 -7 -19
-26 -33 -71 -51 -49 -20 -63 -30 -67 -51 -3 -14 -17 -31 -30 -37 -13 -6 -32
-26 -41 -44 -9 -18 -25 -43 -35 -56 -23 -30 -52 -128 -44 -152 3 -11 -1 -31
-11 -45 -11 -18 -14 -34 -9 -57 4 -18 8 -53 9 -78 1 -25 6 -53 10 -62 4 -9 5
-22 1 -27 -3 -6 1 -23 9 -39 9 -17 11 -34 6 -42 -11 -17 35 -110 54 -110 8 0
16 -10 20 -22 3 -13 26 -45 52 -73 25 -27 49 -57 54 -65 5 -9 33 -32 63 -53
44 -31 66 -39 120 -44 44 -4 76 -2 97 7 24 10 34 10 39 2 4 -6 18 -13 31 -14
20 -3 25 3 32 37 5 22 7 59 4 83 -6 47 -9 43 79 77 20 7 20 7 0 15 -25 10 -38
25 -55 68 -11 28 -10 35 5 52 10 11 26 18 37 17 15 -2 24 10 40 51 36 97 125
154 213 138 33 -7 39 -13 66 -73 16 -35 29 -78 29 -94 0 -29 45 -109 61 -109
19 0 41 51 36 79 -5 23 0 38 23 67 17 20 31 46 32 58 5 68 6 171 1 240 -4 66
-9 81 -29 99 -15 12 -24 32 -24 48 0 16 -7 32 -15 37 -18 9 -125 149 -125 162
0 11 -26 20 -61 20 -16 0 -32 6 -35 14 -7 17 -57 30 -105 27 -20 -1 -40 2 -44
8 -8 14 -58 14 -71 1 -7 -7 -23 0 -50 20 -41 31 -60 36 -84 20z"/>
<path d="M4475 2416 c-106 -26 -195 -98 -236 -191 -19 -40 -23 -68 -23 -145 0
-115 23 -178 89 -239 59 -54 95 -71 285 -131 185 -59 223 -76 276 -123 53 -45
77 -106 76 -189 0 -118 -56 -208 -160 -255 -140 -65 -300 -26 -421 102 -63 67
-102 149 -110 230 -5 51 -9 60 -26 60 -19 0 -20 -7 -20 -215 l0 -215 23 -3
c19 -3 22 1 22 33 0 37 14 75 29 75 4 0 46 -23 92 -51 125 -77 175 -92 289
-87 81 3 105 8 162 35 272 127 320 530 83 693 -58 40 -121 64 -302 116 -84 24
-170 52 -191 63 -72 36 -122 107 -122 171 0 74 68 163 153 201 41 19 69 24
137 24 74 0 93 -4 150 -31 111 -53 174 -122 207 -228 14 -47 21 -56 41 -56 18
0 22 4 18 18 -13 44 -27 146 -34 237 -6 91 -9 100 -27 100 -17 0 -20 -8 -23
-47 -2 -27 -6 -48 -10 -48 -4 0 -47 20 -97 45 -126 64 -220 78 -330 51z"/>
<path d="M5880 2370 c0 -19 7 -20 95 -20 l95 0 0 -610 0 -610 -96 0 c-92 0
-95 -1 -92 -21 3 -22 5 -22 283 -22 278 0 280 0 283 22 3 20 0 21 -92 21 l-96
0 0 295 0 295 285 0 285 0 0 -295 0 -294 -92 -3 c-83 -3 -93 -5 -93 -22 0 -18
12 -19 278 -19 180 0 282 4 289 11 23 23 -5 32 -98 32 l-94 0 0 610 0 609 98
3 c78 2 97 6 97 18 0 13 -40 15 -287 18 -283 2 -288 2 -288 -18 0 -19 6 -20
95 -20 l95 0 0 -295 0 -295 -285 0 -285 0 0 295 0 295 95 0 c88 0 95 1 95 20
0 20 -7 20 -285 20 -278 0 -285 0 -285 -20z"/>
<path d="M8032 2373 c3 -15 17 -18 101 -21 l97 -3 0 -609 0 -609 -97 -3 c-88
-3 -98 -5 -98 -22 0 -18 13 -19 285 -19 272 0 285 1 285 19 0 17 -10 19 -92
22 l-93 3 0 609 0 609 92 3 c79 3 93 6 96 21 3 16 -16 17 -288 17 -272 0 -291
-1 -288 -17z"/>
<path d="M9422 2373 c3 -15 17 -18 101 -21 l97 -3 0 -609 0 -609 -97 -3 c-88
-3 -98 -5 -98 -22 0 -18 19 -18 506 -20 l506 -1 8 145 c12 237 13 225 -10 225
-16 0 -21 -9 -26 -45 -20 -134 -61 -205 -146 -246 -57 -29 -61 -29 -255 -32
l-198 -4 0 332 0 332 88 -4 c94 -5 141 -22 167 -62 9 -13 21 -62 27 -110 10
-71 15 -86 29 -86 16 0 18 20 17 271 0 246 -1 270 -16 267 -13 -2 -19 -20 -25
-67 -4 -35 -15 -77 -23 -93 -21 -40 -81 -64 -181 -73 l-83 -6 0 260 0 261 170
0 c93 0 193 -5 222 -11 135 -29 192 -94 205 -236 6 -63 22 -88 43 -67 6 6 5
78 -2 182 l-11 172 -509 0 c-480 0 -509 -1 -506 -17z"/>
<path d="M11312 2373 c3 -15 17 -18 101 -21 l97 -3 0 -609 0 -610 -95 0 c-77
0 -97 -3 -102 -15 -3 -9 -3 -18 0 -21 3 -4 233 -7 510 -8 l504 -1 6 115 c4 63
10 148 13 188 7 69 6 72 -14 72 -17 0 -22 -8 -27 -37 -26 -152 -67 -221 -153
-261 -55 -26 -65 -27 -254 -30 l-198 -4 0 611 0 611 95 0 c88 0 95 1 95 20 0
20 -7 20 -291 20 -271 0 -290 -1 -287 -17z"/>
<path d="M13132 2373 c3 -16 16 -18 101 -21 l97 -3 0 -609 0 -609 -97 -3 c-90
-3 -98 -5 -98 -23 0 -19 8 -19 345 -16 369 3 454 11 574 55 153 55 262 149
326 280 92 188 92 454 0 642 -70 143 -189 239 -365 293 -79 25 -86 25 -483 29
-385 3 -404 2 -400 -15z m633 -37 c210 -32 338 -114 415 -265 102 -202 87
-533 -32 -711 -95 -143 -244 -207 -520 -225 l-108 -7 0 611 0 611 78 0 c42 0
118 -6 167 -14z"/>
<path d="M2365 2269 c-46 -11 -121 -59 -148 -96 -15 -19 -9 -17 28 12 73 55
110 68 200 69 70 0 89 -4 151 -33 83 -38 134 -86 164 -153 24 -56 80 -323 80
-385 0 -67 -24 -112 -100 -184 -39 -37 -70 -75 -70 -85 1 -15 4 -14 15 6 7 14
41 47 74 74 80 62 106 110 104 196 -1 84 -55 356 -81 406 -68 132 -256 210
-417 173z"/>
<path d="M2217 2068 c14 -24 46 -85 71 -137 50 -108 50 -116 -3 -227 -38 -79
-102 -151 -161 -183 l-39 -20 35 0 c59 -1 168 27 220 55 76 41 81 58 8 25 -66
-30 -177 -66 -183 -59 -2 2 17 19 43 39 76 56 144 191 157 314 6 48 5 49 -8
21 l-13 -30 -22 61 c-23 62 -103 183 -122 183 -6 0 2 -19 17 -42z"/>
<path d="M1361 1620 c0 -14 8 -63 19 -110 11 -47 20 -108 20 -137 0 -47 3 -54
33 -77 89 -68 203 -94 267 -61 37 19 38 40 4 116 -21 47 -31 59 -49 59 -27 0
-48 22 -43 46 2 10 19 23 38 30 l35 12 -40 1 c-51 1 -65 -12 -65 -63 l0 -41
-19 30 c-21 35 -56 61 -95 71 -31 7 -56 39 -56 71 0 12 -11 35 -25 50 l-24 28
0 -25z"/>
<path d="M2189 1456 c17 -18 34 -67 61 -175 40 -158 72 -233 129 -304 78 -97
215 -177 361 -212 68 -16 240 -32 240 -22 0 3 -33 11 -72 17 -285 46 -439 124
-537 270 -45 68 -69 127 -113 280 -35 121 -50 155 -75 164 -13 6 -12 1 6 -18z"/>
<path d="M2178 1400 c2 -21 -3 -73 -12 -115 -27 -131 -18 -253 26 -345 46 -95
210 -218 313 -235 39 -6 39 -6 -10 12 -125 46 -237 139 -287 241 -32 64 -33
71 -33 187 0 66 4 156 9 201 5 48 5 83 0 87 -5 3 -8 -12 -6 -33z"/>
<path d="M5425 1279 c-37 -21 -55 -53 -55 -97 0 -61 40 -102 102 -102 24 0 53
7 64 15 50 34 55 122 10 164 -28 26 -92 37 -121 20z"/>
<path d="M7584 1281 c-67 -29 -85 -121 -35 -172 24 -24 38 -29 76 -29 63 0
105 39 105 99 0 74 -80 130 -146 102z"/>
<path d="M8980 1283 c-53 -20 -82 -89 -60 -144 17 -41 47 -59 98 -59 62 0 102
41 102 102 -1 77 -69 127 -140 101z"/>
<path d="M10854 1271 c-36 -22 -58 -75 -48 -115 19 -76 124 -105 176 -48 32
34 39 63 27 108 -11 39 -58 74 -99 74 -14 0 -39 -9 -56 -19z"/>
<path d="M12690 1283 c-53 -20 -82 -89 -60 -144 17 -41 47 -59 98 -59 62 0
102 41 102 102 -1 77 -69 127 -140 101z"/>
<path d="M4200 560 l0 -260 5125 0 5125 0 0 260 0 260 -5125 0 -5125 0 0 -260z
m2135 74 c19 -20 25 -38 25 -71 0 -57 -33 -93 -85 -93 -53 0 -85 36 -85 95 0
35 6 52 25 70 34 35 88 34 120 -1z m1232 4 c31 -29 32 -94 1 -133 -21 -27 -21
-28 -3 -41 10 -8 22 -14 27 -14 4 0 8 -4 8 -10 0 -19 -38 -10 -57 13 -11 13
-26 21 -40 19 -65 -9 -100 111 -48 163 31 32 80 33 112 3z m2051 10 c15 -15
16 -50 2 -64 -8 -8 -6 -15 5 -24 8 -7 15 -23 15 -36 0 -37 -26 -54 -81 -54
l-49 0 0 95 0 95 48 0 c26 0 53 -5 60 -12z m540 -4 c29 -20 29 -67 1 -95 l-21
-21 28 -29 c23 -24 25 -29 10 -29 -9 0 -29 14 -43 30 -15 18 -34 30 -49 30
-20 0 -24 -5 -24 -30 0 -16 -4 -30 -10 -30 -6 0 -10 38 -10 95 l0 95 48 0 c27
0 57 -7 70 -16z m1536 -5 c22 -17 26 -28 26 -70 0 -68 -30 -99 -95 -99 l-45 0
0 95 0 95 44 0 c29 0 52 -7 70 -21z m481 -4 c25 -24 34 -81 19 -120 -9 -24
-58 -45 -104 -45 l-40 0 0 95 0 95 50 0 c41 0 56 -5 75 -25z m997 8 c25 -23
24 -78 -3 -97 l-21 -15 26 -26 c30 -30 32 -35 11 -35 -8 0 -24 14 -37 30 -13
18 -31 30 -45 30 -19 0 -23 -5 -23 -30 0 -16 -4 -30 -10 -30 -6 0 -10 38 -10
95 l0 95 47 0 c29 0 53 -6 65 -17z"/>
</g>
</svg>
