<?xml version="1.0" standalone="no"?>
<!DOCTYPE svg PUBLIC "-//W3C//DTD SVG 20010904//EN"
 "http://www.w3.org/TR/2001/REC-SVG-20010904/DTD/svg10.dtd">
<svg version="1.0" xmlns="http://www.w3.org/2000/svg"
 width="1502.000000pt" height="338.000000pt" viewBox="0 0 1502.000000 338.000000"
 preserveAspectRatio="xMidYMid meet">
<metadata>
Created by potrace 1.16, written by Peter Selinger 2001-2019
</metadata>
<g transform="translate(0.000000,338.000000) scale(0.100000,-0.100000)"
fill="#000000" stroke="none">
<path d="M0 1690 l0 -1690 7510 0 7510 0 0 1690 0 1690 -7510 0 -7510 0 0
-1690z m2465 1399 c373 -186 726 -234 1043 -143 105 30 244 96 332 158 36 25
66 41 68 36 5 -13 -43 -260 -90 -460 -229 -991 -609 -1725 -1112 -2147 -150
-126 -296 -216 -485 -299 l-75 -32 -90 45 c-686 344 -1183 1266 -1441 2674
-19 106 -35 199 -35 206 0 8 30 -7 73 -36 96 -65 223 -126 322 -153 66 -18
108 -21 240 -22 141 0 173 3 266 26 186 47 362 127 542 248 58 39 109 75 112
80 3 5 47 -18 98 -51 50 -33 155 -92 232 -130z m4415 -242 c0 -97 11 -120 60
-120 49 0 60 23 60 120 0 69 3 83 16 83 14 0 15 -13 12 -96 -3 -86 -5 -98 -27
-115 -30 -25 -92 -25 -122 0 -22 17 -24 29 -27 115 -3 83 -2 96 12 96 13 0 16
-14 16 -83z m369 69 c32 -17 51 -54 51 -101 0 -77 -43 -115 -130 -115 l-50 0
0 115 0 115 50 0 c28 0 63 -6 79 -14z m473 -68 l63 -81 3 81 c2 64 6 82 17 82
12 0 15 -21 15 -115 0 -86 -3 -115 -12 -114 -7 0 -42 40 -78 89 l-65 89 -3
-90 c-2 -65 -6 -89 -15 -86 -8 2 -13 36 -15 102 -4 154 2 157 90 43z m688 62
c24 -24 26 -53 5 -70 -13 -11 -12 -15 5 -37 25 -32 25 -44 -1 -77 -18 -23 -27
-26 -85 -26 l-64 0 0 115 0 115 60 0 c47 0 64 -4 80 -20z m251 10 c26 -15 49
-62 49 -105 0 -43 -23 -90 -49 -105 -29 -15 -83 -12 -108 5 -51 36 -54 147 -6
191 28 26 79 32 114 14z m258 -4 c32 -17 51 -54 51 -101 0 -77 -43 -115 -130
-115 l-50 0 0 115 0 115 50 0 c28 0 63 -6 79 -14z m642 4 c26 -15 49 -62 49
-105 0 -43 -23 -90 -49 -105 -29 -15 -83 -12 -108 5 -51 36 -54 147 -6 191 28
26 79 32 114 14z m529 -45 l0 -55 65 0 65 0 0 55 c0 42 3 55 15 55 12 0 15
-19 15 -115 0 -96 -3 -115 -15 -115 -11 0 -15 12 -15 50 l0 50 -65 0 -65 0 0
-50 c0 -38 -4 -50 -15 -50 -12 0 -15 19 -15 115 0 96 3 115 15 115 12 0 15
-13 15 -55z m645 30 c32 -31 32 -69 0 -101 l-25 -25 20 -30 c12 -16 26 -29 31
-29 6 0 7 -4 4 -10 -12 -20 -34 -9 -62 30 -21 30 -35 40 -55 40 -26 0 -28 -3
-28 -40 0 -29 -4 -40 -15 -40 -12 0 -15 19 -15 108 0 60 3 112 7 115 3 4 31 7
60 7 44 0 58 -5 78 -25z m1206 15 c26 -15 49 -62 49 -105 0 -43 -23 -90 -49
-105 -29 -15 -83 -12 -108 5 -51 36 -54 147 -6 191 28 26 79 32 114 14z m284
-15 c32 -31 32 -69 0 -101 l-25 -25 20 -30 c12 -16 26 -29 31 -29 6 0 7 -4 4
-10 -12 -20 -34 -9 -62 30 -21 30 -35 40 -55 40 -26 0 -28 -3 -28 -40 0 -29
-4 -40 -15 -40 -12 0 -15 19 -15 108 0 60 3 112 7 115 3 4 31 7 60 7 44 0 58
-5 78 -25z m-7510 -506 c33 -10 86 -35 118 -54 32 -19 62 -35 68 -35 5 0 9 22
9 49 0 28 5 53 12 57 22 14 38 -29 38 -105 0 -70 7 -132 26 -218 5 -27 3 -33
-10 -33 -17 0 -21 8 -51 93 -24 68 -103 150 -181 188 -82 40 -190 50 -276 25
-63 -18 -137 -77 -162 -130 -34 -71 -13 -178 43 -224 36 -29 127 -65 274 -107
246 -70 330 -122 389 -243 31 -62 33 -73 33 -172 0 -100 -2 -109 -36 -180 -45
-94 -112 -163 -199 -204 -60 -29 -73 -31 -170 -31 -117 0 -154 12 -279 93 -35
23 -73 42 -83 42 -21 0 -38 -36 -38 -81 0 -24 -4 -30 -17 -27 -17 3 -18 21
-18 213 0 184 2 210 16 213 13 2 17 -10 23 -60 13 -129 115 -266 243 -326 50
-23 71 -27 153 -27 84 0 102 3 152 28 102 50 150 136 150 267 0 57 -5 78 -28
121 -40 72 -100 110 -258 159 -270 85 -336 119 -393 203 -79 118 -65 307 32
415 97 108 258 143 420 91z m1730 -29 c0 -12 -18 -16 -92 -18 l-93 -3 0 -294
0 -295 285 0 285 0 0 295 0 294 -92 3 c-79 3 -93 6 -96 21 -3 16 16 17 283 17
267 0 286 -1 283 -17 -3 -15 -17 -18 -96 -21 l-92 -3 0 -609 0 -610 79 0 c88
0 111 -5 111 -26 0 -12 -48 -14 -286 -14 -266 0 -285 1 -282 18 3 14 17 17 96
20 l92 3 0 294 0 295 -285 0 -285 0 0 -295 0 -295 83 0 c84 0 115 -9 103 -29
-5 -8 -93 -11 -287 -11 -262 0 -280 1 -277 18 3 14 17 17 96 20 l92 3 0 609 0
609 -92 3 c-79 3 -93 6 -96 21 -3 16 14 17 280 15 244 -3 283 -5 283 -18z
m2153 3 c-3 -15 -17 -18 -96 -21 l-92 -3 0 -609 0 -609 92 -3 c79 -3 93 -6 96
-20 3 -17 -16 -18 -282 -18 -238 0 -286 2 -286 14 0 21 23 26 116 26 l84 0 0
610 0 609 -97 3 c-84 3 -98 6 -101 21 -3 16 16 17 283 17 267 0 286 -1 283
-17z m1692 12 c0 -2 -5 -16 -12 -30 -10 -22 -16 -25 -37 -19 -15 3 -119 9
-233 11 l-208 4 0 -261 0 -262 75 4 c41 2 75 1 75 -1 0 -3 -7 -13 -17 -23 -12
-13 -31 -18 -75 -18 l-58 0 0 -76 0 -76 -87 -101 -88 -102 -3 458 -2 457 -95
0 c-89 0 -114 7 -100 30 6 10 865 15 865 5z m-4786 -1109 c117 -49 66 -215
-58 -192 -95 18 -103 152 -12 192 38 16 31 16 70 0z m2189 -24 c32 -35 39 -68
23 -107 -45 -107 -196 -74 -196 43 0 57 66 106 127 94 11 -2 32 -16 46 -30z
m1388 13 c20 -13 40 -76 34 -106 -9 -41 -58 -79 -102 -79 -45 0 -103 54 -103
97 0 85 96 134 171 88z m5359 -705 l0 -260 -5120 0 -5120 0 0 253 c0 140 3
257 7 260 3 4 2307 7 5120 7 l5113 0 0 -260z"/>
<path d="M2180 1736 c0 -1062 3 -1466 11 -1466 43 0 282 136 417 237 76 57
312 279 312 293 0 4 -15 11 -34 14 -66 13 -177 77 -242 141 -81 79 -111 143
-129 272 -7 54 -13 91 -14 83 -4 -57 -116 -211 -176 -242 -11 -6 -2 8 20 33
55 60 100 126 134 199 21 44 31 56 34 43 3 -12 5 -9 6 9 0 15 8 61 18 103 13
60 14 83 5 113 -10 34 -10 35 4 17 12 -15 14 -35 10 -85 -4 -36 -9 -117 -12
-181 -7 -134 7 -201 59 -283 55 -87 206 -194 298 -211 33 -6 38 -3 72 38 42
51 44 57 20 57 -40 0 -121 50 -174 106 -114 122 -153 199 -203 405 -20 81 -44
153 -57 172 l-23 32 23 -20 c28 -24 34 -38 78 -189 53 -182 106 -287 192 -380
45 -48 123 -86 178 -86 42 0 44 2 97 78 31 42 56 80 56 85 0 4 -24 7 -53 7
-171 0 -351 112 -426 264 -42 86 -39 93 7 18 98 -163 262 -262 434 -262 l57 0
61 102 c214 363 409 883 534 1423 45 198 79 366 73 371 -2 2 -51 -20 -108 -50
-181 -95 -347 -136 -551 -136 -198 0 -400 43 -614 131 -107 44 -280 135 -366
193 l-28 18 0 -1466z m771 708 c78 -23 119 -47 166 -94 60 -59 80 -109 113
-276 58 -296 56 -303 -65 -419 -55 -52 -90 -94 -100 -120 l-15 -40 4 39 c4 32
19 53 84 120 70 72 81 87 92 136 11 50 9 70 -24 235 -49 244 -82 307 -196 365
-143 73 -288 60 -409 -37 l-46 -36 45 47 c45 47 82 72 130 87 44 13 165 9 221
-7z m-271 -309 c16 -34 30 -70 30 -79 0 -29 16 -16 27 22 l10 37 2 -31 c2 -51
-36 -181 -75 -255 -34 -65 -65 -100 -124 -141 l-25 -18 30 6 c25 6 153 51 220
79 17 8 18 7 7 -7 -19 -24 -130 -75 -193 -88 -81 -18 -174 -9 -201 18 -20 20
-21 25 -10 56 11 29 11 39 0 58 -14 25 -15 52 -3 82 5 12 2 29 -10 48 l-17 30
43 44 c38 39 42 47 31 64 -7 11 -8 20 -3 20 6 0 13 -4 16 -10 12 -20 24 -9 30
28 10 66 35 140 55 164 20 23 20 22 0 -26 -11 -27 -26 -80 -32 -118 -11 -59
-10 -71 2 -78 12 -8 10 -10 -8 -10 -12 0 -42 -18 -67 -41 l-44 -41 21 -29 c20
-27 20 -30 5 -47 -21 -23 -22 -65 -2 -82 12 -10 14 -24 9 -61 -6 -46 -5 -49
21 -61 61 -28 171 69 236 207 21 46 39 94 39 108 0 28 -50 140 -104 235 -20
35 -36 67 -36 70 2 20 94 -99 120 -153z"/>
<path d="M1442 2612 c-6 -5 -48 -9 -93 -10 -88 -2 -105 -7 -122 -41 -7 -14
-38 -34 -74 -50 -51 -21 -65 -32 -73 -57 -6 -17 -21 -36 -33 -41 -48 -22 -137
-214 -122 -262 3 -12 -1 -31 -11 -46 -11 -18 -14 -34 -9 -57 4 -18 9 -55 11
-83 6 -82 10 -101 24 -134 9 -23 10 -35 2 -43 -13 -13 29 -102 52 -111 9 -4
22 -21 30 -39 20 -47 167 -195 211 -214 51 -21 156 -30 184 -15 18 10 29 9 58
-4 19 -9 38 -14 41 -10 4 3 9 45 12 93 l5 86 54 21 c49 20 52 23 28 28 -26 7
-67 65 -67 96 0 23 18 38 49 43 18 2 28 15 43 56 26 70 74 117 139 136 52 16
92 13 118 -8 22 -18 73 -138 67 -160 -3 -13 7 -39 26 -70 l32 -49 24 28 c18
22 22 35 18 60 -5 26 -1 39 17 61 34 40 45 86 46 184 1 146 -8 207 -35 239
-13 16 -24 38 -24 50 0 11 -7 26 -15 33 -27 23 -125 157 -125 172 0 13 -41 26
-86 26 -14 0 -24 6 -24 14 0 16 -51 30 -102 27 -21 -2 -47 5 -62 14 -24 16
-28 16 -50 2 -22 -15 -26 -14 -62 13 -38 29 -77 37 -102 22z"/>
<path d="M1630 1727 c0 -9 9 -55 20 -103 11 -47 21 -113 22 -145 1 -32 4 -62
7 -67 13 -18 103 -74 142 -87 50 -18 128 -19 164 -3 39 17 41 48 7 114 -24 48
-36 61 -63 69 -29 8 -34 15 -34 39 0 24 6 31 35 42 l35 12 -40 1 c-51 1 -65
-12 -65 -63 l0 -41 -21 32 c-12 19 -43 43 -74 59 -63 30 -70 38 -79 80 -8 36
-56 89 -56 61z"/>
<path d="M7150 2815 l0 -98 42 6 c55 7 78 35 78 92 0 57 -23 85 -78 92 l-42 6
0 -98z"/>
<path d="M8587 2903 c-9 -3 -24 -17 -32 -33 -40 -78 11 -166 80 -140 31 12 45
39 45 88 0 59 -42 98 -93 85z"/>
<path d="M8820 2815 l0 -98 42 6 c55 7 78 35 78 92 0 57 -23 85 -78 92 l-42 6
0 -98z"/>
<path d="M9487 2903 c-9 -3 -24 -17 -32 -33 -40 -78 11 -166 80 -140 31 12 45
39 45 88 0 59 -42 98 -93 85z"/>
<path d="M11867 2903 c-9 -3 -24 -17 -32 -33 -40 -78 11 -166 80 -140 31 12
45 39 45 88 0 59 -42 98 -93 85z"/>
<path d="M6219 641 c-20 -16 -24 -28 -24 -76 0 -48 4 -60 24 -76 48 -39 115
-15 127 46 18 96 -60 160 -127 106z m95 -23 c35 -49 9 -128 -41 -128 -15 0
-35 7 -45 17 -23 21 -24 89 -1 115 23 25 68 23 87 -4z"/>
<path d="M7453 636 c-55 -48 -27 -158 41 -161 13 -1 36 -11 51 -23 27 -22 45
-28 45 -16 0 3 -11 15 -25 26 l-25 20 25 30 c71 84 -29 195 -112 124z m101
-18 c9 -12 16 -34 16 -49 0 -36 -36 -79 -65 -79 -30 0 -65 44 -65 81 0 61 81
94 114 47z"/>
<path d="M9500 565 l0 -95 48 0 c75 0 107 38 71 84 -16 20 -29 26 -60 26 -37
0 -39 2 -39 31 0 29 1 30 43 27 39 -3 42 -5 40 -30 -2 -33 13 -37 23 -6 10 32
-27 58 -82 58 l-44 0 0 -95z"/>
<path d="M10040 565 c0 -57 4 -95 10 -95 6 0 10 14 10 30 0 25 4 30 24 30 16
0 32 -11 46 -30 12 -16 29 -30 38 -30 12 0 9 8 -13 30 l-29 30 22 20 c50 47
13 110 -63 110 l-45 0 0 -95z"/>
<path d="M11570 565 l0 -98 51 5 c62 6 88 30 96 85 8 59 -26 94 -95 101 l-52
5 0 -98z"/>
<path d="M12050 565 l0 -98 51 5 c62 6 88 30 96 85 8 59 -26 94 -95 101 l-52
5 0 -98z"/>
<path d="M13050 565 c0 -57 4 -95 10 -95 6 0 10 14 10 30 0 26 4 30 27 30 18
0 36 -11 54 -32 15 -18 31 -29 35 -25 5 4 4 11 -1 15 -33 24 -37 41 -14 71 42
57 7 101 -82 101 l-39 0 0 -95z"/>
</g>
</svg>
